<svg xmlns="http://www.w3.org/2000/svg" version="1.1" xmlns:xlink="http://www.w3.org/1999/xlink" xmlns:svgjs="http://svgjs.dev/svgjs" width="1000" height="1000" viewBox="0 0 1000 1000"><rect width="1000" height="1000" fill="#ff908b"></rect><g transform="matrix(0.7,0,0,0.7,149.84897959183667,150.19913061224486)"><svg viewBox="0 0 343 343" data-background-color="#ff908b" preserveAspectRatio="xMidYMid meet" height="999" width="1000" xmlns="http://www.w3.org/2000/svg" xmlns:xlink="http://www.w3.org/1999/xlink"><g id="tight-bounds" transform="matrix(1,0,0,1,0.0740000000000407,0.07400000000001228)"><svg viewBox="0 0 342.85155851775386 342.85155851775386" height="342.85155851775386" width="342.85155851775386"><g><svg></svg></g><g><svg viewBox="0 0 342.85155851775386 342.85155851775386" height="342.85155851775386" width="342.85155851775386"><g><path d="M0 171.426c0-94.676 76.75-171.426 171.426-171.426 94.676 0 171.426 76.75 171.426 171.426 0 94.676-76.75 171.426-171.426 171.426-94.676 0-171.426-76.75-171.426-171.426zM171.426 338.904c92.496 0 167.479-74.983 167.478-167.478 0-92.496-74.983-167.479-167.478-167.479-92.496 0-167.479 74.983-167.479 167.479 0 92.496 74.983 167.479 167.479 167.478z" data-fill-palette-color="tertiary" fill="#ed2647" stroke="transparent"></path><ellipse rx="164.56874808852186" ry="164.56874808852186" cx="171.42577925887693" cy="171.42577925887693" fill="#ed2647" stroke="transparent" stroke-width="0" fill-opacity="1" data-fill-palette-color="tertiary"></ellipse></g><g transform="matrix(1,0,0,1,64.84655864529837,77.42604652753778)"><svg viewBox="0 0 213.1584412271571 187.9994654626783" height="187.9994654626783" width="213.1584412271571"><g><svg viewBox="0 0 213.1584412271571 187.9994654626783" height="187.9994654626783" width="213.1584412271571"><g><svg viewBox="0 0 213.1584412271571 187.9994654626783" height="187.9994654626783" width="213.1584412271571"><g transform="matrix(1,0,0,1,0,106.84805576015765)"><svg viewBox="0 0 213.1584412271571 81.15140970252067" height="81.15140970252067" width="213.1584412271571"><g id="textblocktransform"><svg viewBox="0 0 213.1584412271571 81.15140970252067" height="81.15140970252067" width="213.1584412271571" id="textblock"><g><svg viewBox="0 0 213.1584412271571 43.769192688174954" height="43.769192688174954" width="213.1584412271571"><g transform="matrix(1,0,0,1,0,0)"><svg width="213.1584412271571" viewBox="3.299999952316284 -26.049999237060547 129.2899932861328 26.549999237060547" height="43.769192688174954" data-palette-color="#ff908b"><path d="M17.1-26.05Q19.55-26.05 21.5-25 23.45-23.95 24.5-21.95L24.5-21.95Q27.1-26.05 31.95-26.05L31.95-26.05Q35.55-26.05 37.93-23.88 40.3-21.7 40.3-17.85L40.3-17.85 40.3 0 33 0 33-16.4Q33-18.5 32.1-19.63 31.2-20.75 29.6-20.75L29.6-20.75Q27.85-20.75 26.65-19.35 25.45-17.95 25.45-15.85L25.45-15.85 25.45 0 18.15 0 18.15-16.4Q18.15-18.45 17.23-19.6 16.3-20.75 14.7-20.75L14.7-20.75Q12.95-20.75 11.78-19.35 10.6-17.95 10.6-15.85L10.6-15.85 10.6 0 3.3 0 3.3-25.55 8.8-25.55Q9.1-24.3 9.6-21.8L9.6-21.8Q10.95-23.95 12.88-25 14.8-26.05 17.1-26.05L17.1-26.05ZM70.5-9.55Q70.5-6.2 68.9-3.93 67.3-1.65 64.67-0.58 62.05 0.5 58.95 0.5L58.95 0.5 58.15 0.5Q54.6 0.5 51.75-1 48.9-2.5 47.27-5.33 45.65-8.15 45.65-12.05L45.65-12.05 45.65-13.5Q45.65-17.35 47.3-20.2 48.95-23.05 51.77-24.55 54.6-26.05 58.15-26.05L58.15-26.05 58.95-26.05Q62.05-26.05 64.7-24.78 67.35-23.5 68.95-21.08 70.55-18.65 70.55-15.35L70.55-15.35 70.55-11.55 53.05-11.55 53.05-10.35Q53.05-7.85 54.52-6.18 56-4.5 58.55-4.5L58.55-4.5Q60.85-4.5 62.17-5.78 63.5-7.05 63.5-9.55L63.5-9.55 70.5-9.55ZM58.2-21.05Q56-21.05 54.62-19.5 53.25-17.95 53.05-15.55L53.05-15.55 63.15-15.55Q63.15-18.1 61.97-19.58 60.8-21.05 58.2-21.05L58.2-21.05ZM81.45-25.55L82.25-21.8Q85.4-26.05 90.4-26.05L90.4-26.05Q94.3-26.05 96.82-23.95 99.35-21.85 99.35-17.85L99.35-17.85 99.35 0 92.05 0 92.05-16.25Q92.05-18.2 90.92-19.48 89.8-20.75 88.05-20.75L88.05-20.75Q86.1-20.75 84.7-19.28 83.3-17.8 83.3-15.7L83.3-15.7 83.3 0 76 0 76-25.55 81.45-25.55ZM129.09-6Q129.09-5.25 129.54-4.88 129.99-4.5 130.54-4.5L130.54-4.5Q131.04-4.5 131.64-4.7 132.24-4.9 132.59-5.05L132.59-5.05 132.59-0.55Q130.74 0.5 128.19 0.5L128.19 0.5Q123.19 0.5 122.39-3.15L122.39-3.15Q119.24 0.5 114.69 0.5L114.69 0.5Q110.79 0.5 108.27-1.6 105.74-3.7 105.74-7.7L105.74-7.7 105.74-25.55 113.04-25.55 113.04-9.3Q113.04-7.35 114.17-6.08 115.29-4.8 117.04-4.8L117.04-4.8Q118.99-4.8 120.39-6.28 121.79-7.75 121.79-9.85L121.79-9.85 121.79-25.55 129.09-25.55 129.09-6Z" opacity="1" transform="matrix(1,0,0,1,0,0)" fill="#ff908b" class="wordmark-text-0" data-fill-palette-color="quaternary" id="text-0"></path></svg></g></svg></g><g transform="matrix(1,0,0,1,0,54.10204862122855)"><svg viewBox="0 0 213.1584412271571 27.049361081292123" height="27.049361081292123" width="213.1584412271571"><g transform="matrix(1,0,0,1,0,0)"><svg width="213.1584412271571" viewBox="1.75 -35 288.4200134277344 36.599998474121094" height="27.049361081292123" data-palette-color="#ff908b"><path d="M1.75 0L11.8 0 11.8-1.95 7.85-1.95 7.85-28.85Q7.85-29.3 7.83-29.83 7.8-30.35 7.75-30.8L7.75-30.8Q8.05-30.35 8.22-30.13 8.4-29.9 8.7-29.45L8.7-29.45 24.1-9.4 39.05-28.9Q39.45-29.45 39.75-29.85 40.05-30.25 40.45-30.8L40.45-30.8Q40.4-30.2 40.38-29.83 40.35-29.45 40.35-28.85L40.35-28.85 40.35-1.95 36.55-1.95 36.55 0 46.6 0 46.6-1.95 42.4-1.95 42.4-33.05 46.45-33.05 46.45-35 41.2-35Q36.9-29.45 32.65-23.88 28.4-18.3 24.1-12.75L24.1-12.75Q20.4-17.5 15.9-23.38 11.4-29.25 7-35L7-35 1.75-35 1.75-33.05 5.8-33.05 5.8-1.95 1.75-1.95 1.75 0ZM96.07 0L121.12 0 121.12-7.7 119.17-7.7 119.17-1.95 101.72-1.95 101.72-16.65 118.47-16.65 118.47-18.65 101.72-18.65 101.72-33.05 118.47-33.05 118.47-27.3 120.42-27.3 120.42-35 96.07-35 96.07-33.05 99.67-33.05 99.67-1.95 96.07-1.95 96.07 0ZM205.2 1.6L205.2-33.05 209.4-33.05 209.4-35 199.35-35 199.35-33.05 203.15-33.05 203.15-4.6 203.3-3 202.35-4.3 176-35 170.6-35 170.6-33.05 174.65-33.05 174.65-1.95 170.6-1.95 170.6 0 180.65 0 180.65-1.95 176.7-1.95 176.7-30.1 176.6-31.55 177.5-30.4 205.2 1.6ZM282.87-2.6L282.87-2.6Q284.47-4.05 285.4-6.25 286.32-8.45 286.32-11.3L286.32-11.3 286.32-33.05 290.17-33.05 290.17-35 280.12-35 280.12-33.05 284.27-33.05 284.27-11.45Q284.27-9.05 283.52-7.23 282.77-5.4 281.47-4.15L281.47-4.15Q280.17-2.85 278.37-2.2 276.57-1.55 274.52-1.55L274.52-1.55Q272.37-1.55 270.57-2.2 268.77-2.85 267.52-4.15L267.52-4.15Q266.22-5.4 265.5-7.23 264.77-9.05 264.77-11.45L264.77-11.45 264.77-33.05 268.92-33.05 268.92-35 258.87-35 258.87-33.05 262.72-33.05 262.72-11.3Q262.72-8.45 263.62-6.25 264.52-4.05 266.07-2.6L266.07-2.6Q267.67-1.1 269.82-0.35 271.97 0.4 274.52 0.4L274.52 0.4Q277.02 0.4 279.17-0.35 281.32-1.1 282.87-2.6Z" opacity="1" transform="matrix(1,0,0,1,0,0)" fill="#ff908b" class="slogan-text-1" data-fill-palette-color="quaternary" id="text-1"></path></svg></g></svg></g></svg></g></svg></g><g transform="matrix(1,0,0,1,40.713262274387006,0)"><svg viewBox="0 0 131.7319166783831 96.51519982710406" height="96.51519982710406" width="131.7319166783831"><g><svg xmlns="http://www.w3.org/2000/svg" xmlns:xlink="http://www.w3.org/1999/xlink" version="1.1" x="0" y="0" viewBox="21.099000930786133 47.26599884033203 178.80099487304688 131.00100708007812" enable-background="new 0 0 225 225.334" xml:space="preserve" height="96.51519982710406" width="131.7319166783831" class="icon-icon-0" data-fill-palette-color="quaternary" id="icon-0"><path d="M199.9 47.266v25H21.099v-25H199.9zM21.099 125.267H199.9v-25H21.099V125.267zM21.099 178.267H199.9v-25H21.099V178.267z" fill="#ff908b" data-fill-palette-color="quaternary"></path></svg></g></svg></g><g></g></svg></g></svg></g></svg></g></svg></g><defs></defs></svg><rect width="342.85155851775386" height="342.85155851775386" fill="none" stroke="none" visibility="hidden"></rect></g></svg></g></svg>